<svg height="35" width="80" xmlns="http://www.w3.org/2000/svg" xmlns:xlink="http://www.w3.org/1999/xlink"><clipPath id="a"><path d="m72.387 203.621h455.311v129.736h-455.311z"/></clipPath><text x="6.606521" y="10.002353"><tspan x="6.606521" y="76.29718"/></text><g fill="#98fb98" transform="matrix(1.25 0 0 -1.25 -1393.4785 -39.929437)"><path d="m227.73559 325.77646v53.708" fill="#98fb98" stroke="#80d6f7" stroke-width=".4"/><g fill="#fff" transform="matrix(.31431 0 0 .40055319 847.32592 -121.42754)"><path d="m923.7926 190.09368c.0792-3.89553 1.78867-5.93328 1.78867-5.93328 1.15113-1.61225 3.33562-1.7855 3.33562-1.7855 1.23259-.15261 2.94245.12297 2.94245.12297l.019 15.63058s-1.65895.20243-2.96149.0395c0 0-2.12516-.10096-3.43568-1.93633 0 0-1.6492-2.16164-1.68861-5.791v-.34695zm22.32608-11.10083c-6.95991 0-12.38163-.11535-12.38163-.11535-6.73591-.18313-10.04495-.0921-10.04495-.0921-7.06216 0-12.97364 4.92563-13.13524 11.59681-.15009 6.26452 4.77097 11.39572 12.28075 11.80507 0 0 3.31878.32496 9.04077-.47084l-.019.67326.008 12.56991 14.23587.04v-13.54119h6.97099v4.48665l13.82941 6.23984.0111-10.71527 4.98267.009-.0393-3.74291c-2.69851.0835-4.95435.075-4.95435.075v-6.96606c0-.34473-.0131-3.64059.10765-4.44492 0 0 .19745-1.92554 1.70853-3.18724 0 0 .87619-.83126 2.79326-.9942 0 0 .64376-.0687 1.83915-.0606h3.2816l.10805.002c2.45318.0144 3.20096.47128 3.20096.47128 1.05197.51079 1.68333 1.53774 1.68333 2.69083 0 .87166-.37585 1.62347-.94301 2.20921l-.0192.0202-3.59062 3.52972c-1.12596 1.08306-1.71478 1.96594-1.94409 2.35509l-.0282.0417c-.44983.75675-.70796 1.64726-.70796 2.59926 0 1.85059 1.005 3.48573 2.46911 4.34886l.0998.057c1.32512.85685 8.17919 3.36455 20.57685.42821l-.10079-3.22182-.25501.0202s-3.31173.31464-4.63947.0561l-.0312-.005c-1.02234-.17236-1.80862-.97535-1.80862-2.04943 0-.52694.21166-1.0862.54458-1.43855l.0827-.0875 4.96977-4.98847.0423-.0448c1.00943-1.04267 1.63505-2.48032 1.63505-4.06788 0-2.52654-1.83119-4.82598-4.03562-5.60877 0 0-1.41009-.57003-3.72649-.72084 0 0-1.0936-.0844-4.21625-.14408h-.17044c-11.26464-.12882-22.97963.0906-22.97963.0906l-.28645.0112c-7.50883.24462-9.01154 6.01586-9.01154 6.01586-.41879 1.06915-.47241 3.73215-.47241 3.73215l.0161 9.35932-6.97402-.008v-18.81781z" stroke-width="1.01485"/><path d="m853.13955 202.6757c3.5158 3.83089 13.90118 6.1025 25.9278 5.37761 13.76172-.83036 24.85724-5.35696 25.92824-10.36697l.001.0467c.0757 2.09027 0 3.34255 0 3.34255-.29752 5.33227-12.19176 9.45941-26.75527 9.24621-12.00715-.1746-22.12334-3.25099-25.3859-7.31483 0 0 .14169-.1746.27229-.31688l.0115-.0144z" stroke-width="1.01485"/><path d="m856.39812 200.14152c4.88034 2.43319 13.25788 3.73484 22.67763 3.1675 13.76084-.82947 24.85504-5.35741 25.92692-10.36697l.003.0463c.0784 2.09161 0 3.34389 0 3.34389-.29752 5.33138-12.19088 9.45761-26.75573 9.2462-9.57693-.14004-17.94429-2.12034-22.59572-4.97904 0 0 .35684-.23205.7283-.45064l.0159-.007z" stroke-width="1.01485"/><g clip-path="url(#a)" transform="matrix(.44274102 0 0 .44884498 819.66478 65.464241)"><path d="m96.975 294.102c10.352 2.279 23.268 3.236 37.187 2.406 31.082-1.848 56.14-11.936 58.558-23.1l.008.101c.17 4.66 0 7.451 0 7.451-.675 11.883-27.538 21.076-60.437 20.604-15.196-.218-29.049-2.464-39.589-5.989 0 0 2.195-.824 4.229-1.456z"/><path d="m72.797 312.678c2.617 11.145 28.16 20.209 59.513 20.662 30.006.429 54.623-7.106 59.293-17.459 0 0 .486-1.096.66-2.222 0 0 .47-1.882.47-8.09l-.009-.39c-2.448 11.153-27.484 21.257-58.548 23.103-31.522 1.877-57.761-5.611-61.332-15.618z"/><path d="m190.244 278.22c-7.366-9.054-30.21-15.906-57.328-16.293-32.896-.472-59.76 8.719-60.433 20.6 0 0-.171 2.796 0 7.456l.005.101c2.422-11.167 27.477-21.253 58.559-23.104 27.157-1.615 50.61 3.454 58.563 11.983 0 0 .308-.335.622-.715z"/><path d="m183.929 283.592c-10.508-6.37-29.407-10.786-51.032-11.093-32.895-.474-59.76 8.721-60.434 20.603 0 0-.171 2.791.002 7.45l.003.102c2.421-11.16 27.479-21.251 58.559-23.101 21.271-1.266 40.199 1.639 51.226 7.059 0 0 .797-.446 1.641-.99z"/><path d="m172.516 289.093c-10.542-3.523-24.391-5.773-39.588-5.991-32.898-.474-59.762 8.725-60.436 20.6 0 0-.17 2.791 0 7.45l.005.102c2.421-11.159 27.479-21.245 58.561-23.096 13.91-.827 26.83.133 37.181 2.407 0 0 1.927-.597 4.204-1.444z"/></g><g stroke-width="1.01485"><path d="m904.85922 187.54155c-1.15865-5.00104-12.46758-9.06982-26.34928-9.27224-13.28578-.193-24.18296 3.1868-26.25056 7.83593 0 0-.21695.49283-.29309.99644 0 0-.2081.84472-.2081 3.63205l.003.1755c1.08472-5.00507 12.16918-9.54199 25.92161-10.37101 13.95697-.84203 25.57405 2.51846 27.15463 7.0114l.0222-.008z"/><path d="m913.65737 161.56106h1.48894c2.19246 0 2.99647.83215 2.99647 3.7474v2.53283c0 2.53373-.76904 3.47181-2.41294 3.47181h-2.07247zm-1.57261 11.14301h3.79916c1.57528 0 2.70426-.57586 3.32144-1.91297.49498-1.05882.54635-3.55485.54635-3.95522 0-2.67377-.24041-4.21555-.75178-5.04951-.66721-1.07632-1.91663-1.6145-4.07322-1.6145h-2.84195z"/><path d="m923.72354 160.17187h-1.40349v8.76281h1.40349zm-1.49115 12.5322h1.57659v-1.53011h-1.57659z"/><path d="m929.08026 167.92927c-1.59121 0-1.64036-1.94395-1.64036-3.10512 0-2.81201.63091-3.47181 1.67577-3.47181 1.69394 0 1.64435 2.03013 1.64435 3.2447 0 1.3003.0846 3.33223-1.67976 3.33223m1.6439 1.00541h1.40392v-9.64883c0-1.9583-1.2835-2.42735-3.18552-2.42735-1.43758 0-2.73702.72713-2.61793 2.34162h1.57528c.0168-.81509.54678-1.26483 1.31715-1.26483.97492 0 1.5071.60504 1.5071 1.50766v1.82321h-.0514c-.35862-.69526-1.14492-1.09429-1.89936-1.09429-2.34475 0-2.8083 2.04809-2.8083 4.65228 0 4.0257 2.00341 4.28512 2.7056 4.28512.90717 0 1.62662-.39947 2.02022-1.24913h.0332v1.07454z"/><path d="m936.08178 160.17187h-1.40484v8.76281h1.40484zm-1.489 12.5322h1.57447v-1.53011h-1.57447z"/><path d="m938.666 168.93468v1.68362l1.40393.64409v-2.32771h1.88351v-1.07454h-1.88351v-5.361c0-.55567 0-1.26844 1.2844-1.26844.0998 0 .32415.0355.63408.0705v-1.09518c-.46495-.0341-.92578-.13825-1.38892-.13825-1.33398 0-1.93349.55748-1.93349 1.56333v6.22907h-1.42118v1.07454h1.42118z"/><path d="m944.55539 162.77607c0-.8519.41083-1.61494 1.349-1.61494.85805 0 1.9206.53727 1.78342 3.36634-1.3362-.0175-3.13242.10503-3.13242-1.7514m3.16689-1.3371h-.0343c-.42807-1.00542-1.09622-1.44035-2.1752-1.44035-1.8311 0-2.35975 1.19663-2.35975 2.88114 0 2.65357 2.56657 2.77745 4.53495 2.72404.0343 1.16295.0494 2.43004-1.45615 2.43004-.93999 0-1.43851-.64229-1.35253-1.56287h-1.52267c.0655 1.96325 1.09319 2.6383 2.92701 2.6383 2.22388 0 2.80696-1.1634 2.80696-2.6383v-4.21601c0-.6939.0665-1.40532.17175-2.08309h-1.5398v1.2671z"/><path d="m953.19904 160.17187h-1.40394v12.53175h1.40394z"/><path d="m959.58423 160.17187v12.5322h6.36614v-1.39097h-4.79348v-4.02614h4.45169v-1.38962h-4.45169v-4.33628h4.89709v-1.38919z"/><path d="m972.68047 160.17187v6.07423c0 .93719-.32808 1.69977-1.5274 1.69977-1.53991 0-1.76306-1.38558-1.76306-2.58534v-5.18866h-1.40081v6.94184c0 .60774-.0343 1.21458-.0877 1.82097h1.489v-1.12705h.0685c.54761.9897 1.19842 1.30164 2.31288 1.30164 1.84571 0 2.30935-1.12704 2.30935-2.86317v-6.07423h-1.4004z"/><path d="m976.70148 168.93468v1.68362l1.40132.64409v-2.32771h1.88431v-1.07454h-1.88431v-5.361c0-.55567 0-1.26844 1.28439-1.26844.1018 0 .32627.0355.63268.0705v-1.09518c-.46224-.0341-.92316-.13825-1.3863-.13825-1.33479 0-1.93209.55748-1.93209 1.56333v6.22907h-1.42117v1.07454h1.42117z"/><path d="m986.04513 165.17021c0 2.55124-.70131 2.86363-1.72677 2.86363-.88899 0-1.62659-.43448-1.64473-2.86363zm-3.3715-1.07633c0-2.4471.6495-2.93275 1.74612-2.93275.95854 0 1.45665.78234 1.50715 1.66791h1.53849c-.0161-1.94754-1.19983-2.83042-3.01107-2.83042-1.8325 0-3.28915.55612-3.28915 4.42517 0 2.56874.29441 4.68548 3.28915 4.68548 2.46559 0 3.08012-1.36897 3.08012-4.26896v-.74643z"/><path d="m991.31596 167.61732h.0353c.58349 1.33486 1.30385 1.49195 2.67372 1.49195v-1.4758c-.12136.0189-.26176.035-.37989.0538-.12004.0166-.23868.0341-.37636.0341-1.55845 0-1.95245-1.19752-1.95245-2.37798v-5.1716h-1.40353v8.76281h1.40353z"/><path d="m994.82817 168.93468v1.68362l1.40434.64409v-2.32771h1.88169v-1.07454h-1.88169v-5.361c0-.55567 0-1.26844 1.28359-1.26844.10271 0 .32495.0355.63348.0705v-1.09518c-.46355-.0341-.92396-.13825-1.3866-.13825-1.33449 0-1.93481.55748-1.93481 1.56333v6.22907h-1.41986v1.07454h1.41986z"/><path d="m1000.7189 162.77607c0-.8519.4091-1.61494 1.3486-1.61494.858 0 1.9215.53727 1.7842 3.36634-1.337-.0175-3.1328.10503-3.1328-1.7514m3.1657-1.3371h-.033c-.429-1.00542-1.0984-1.44035-2.1773-1.44035-1.82864 0-2.36037 1.19663-2.36037 2.88114 0 2.65357 2.56707 2.77745 4.53767 2.72404.033 1.16295.051 2.43004-1.4561 2.43004-.9426 0-1.4362-.64229-1.3526-1.56287h-1.52484c.072 1.96325 1.09674 2.6383 2.92924 2.6383 2.2238 0 2.8047-1.1634 2.8047-2.6383v-4.21601c0-.6939.069-1.40532.1727-2.08309h-1.5402v1.2671z"/><path d="m1009.3612 160.17187h-1.4039v8.76281h1.4039zm-1.4885 12.5322h1.574v-1.53011h-1.574z"/><path d="m1016.4818 160.17187v6.07423c0 .93719-.3254 1.69977-1.5217 1.69977-1.5416 0-1.7638-1.38558-1.7638-2.58534v-5.18866h-1.4027v6.94184c0 .60774-.038 1.21458-.087 1.82097h1.4894v-1.12705h.067c.5512.9897 1.1972 1.30164 2.3107 1.30164 1.8467 0 2.3128-1.12704 2.3128-2.86317v-6.07423h-1.4048z"/><path d="m1024.5942 160.17187v6.07423c0 .88377-.2391 1.69977-1.3685 1.69977-.4295 0-1.0099-.25853-1.2127-.58843-.2595-.43538-.3254-.95605-.3254-1.2837v-5.90187h-1.4044v6.94184c0 .60774-.033 1.21458-.089 1.82097h1.4929v-1.09339h.031c.4104.93854 1.1489 1.26798 2.157 1.26798.7894 0 1.6948-.32944 2.0216-1.12704.4804.93808 1.2667 1.12704 2.0534 1.12704.9068 0 2.3638-.2078 2.3638-2.27339v-6.66401h-1.4048v6.07423c0 .88377-.2417 1.69977-1.3712 1.69977-.5268 0-.6827-.0165-1.0616-.32855-.4074-.34561-.4774-1.21593-.4774-1.54358v-5.90187h-1.4052z"/><path d="m1037.4509 165.17021c0 2.55124-.7026 2.86363-1.7289 2.86363-.8917 0-1.6252-.43448-1.6434-2.86363zm-3.3723-1.07633c0-2.4471.6503-2.93275 1.7443-2.93275.9595 0 1.4563.78234 1.5076 1.66791h1.5416c-.017-1.94754-1.1998-2.83042-3.015-2.83042-1.8308 0-3.2843.55612-3.2843 4.42517 0 2.56874.2905 4.68548 3.2843 4.68548 2.4669 0 3.0823-1.36897 3.0823-4.26896v-.74643z"/><path d="m1045.9586 160.17187v6.07423c0 .93719-.324 1.69977-1.5239 1.69977-1.5416 0-1.7634-1.38558-1.7634-2.58534v-5.18866h-1.404v6.94184c0 .60774-.035 1.21458-.087 1.82097h1.4912v-1.12705h.07c.5454.9897 1.1954 1.30164 2.3089 1.30164 1.8484 0 2.3142-1.12704 2.3142-2.86317v-6.07423h-1.4049z"/><path d="m1049.9792 168.93468v1.68362l1.4039.64409v-2.32771h1.8834v-1.07454h-1.8834v-5.361c0-.55567 0-1.26844 1.2862-1.26844.1013 0 .3223.0355.6291.0705v-1.09518c-.4604-.0341-.9213-.13825-1.3875-.13825-1.331 0-1.9317.55748-1.9317 1.56333v6.22907h-1.4217v1.07454h1.4217z"/></g></g></g></svg>