<svg height="35" width="80" xmlns="http://www.w3.org/2000/svg"><text x="6.606521" y="10.002353"><tspan x="6.606521" y="76.29718"/></text><path d="m57.653327 34.674727c-.944905-.121502-1.839241-.577809-2.095167-1.068997-.04054-.07778-.05552-4.447621-.05468-15.950706.0013-14.0132391.01-15.8618581.07698-16.0017872.245008-.5111243 1.030268-.94617971 1.985329-1.09992943.295231-.0475378 1.010301-.0448282 1.411107.005271 1.016641.12729241 1.888134.58258283 2.146383 1.12132623.06708.1399227.07597 1.9871269.07699 15.9883904.000646 11.493405-.01414 15.859537-.05468 15.937317-.110599.212268-.415657.479583-.749913.65713-.716651.380677-1.762925.537811-2.742365.411867zm-36.36385-1.590251c-1.164638-.09481-2.122379-.549131-2.411224-1.143821-.07303-.15037-.07913-1.448073-.06733-14.354737l.01298-14.1894159.139444-.2185894c.275198-.4313928.9482-.80793 1.713316-.9585717.291718-.057459.431054-.068117.885323-.067854.608395.0003637.933846.037891 1.419144.1635218.44248.1145788 1.026924.4271146 1.248774.6677954.342515.3716053.314206-.9421723.316569 14.6900478.002 14.08514.0013 14.170247-.09847 14.341347-.229353.39234-.797656.746144-1.476817.919393-.540664.137926-1.159164.193416-1.681713.150879zm27.310089-4.888238c-1.108961-.133707-2.038004-.620061-2.236891-1.171011-.047-.130216-.05507-2.283304-.03557-9.50163l.02525-9.3332536.117604-.1666563c.23056-.3267075.668147-.6207036 1.1824-.7943952.928197-.3135014 2.170219-.2920256 3.125849.054022.561123.2032157.94364.4786374 1.139667.8205857l.10398.1813952.0039 9.3580572c.0033 6.948748-.01098 9.387713-.05378 9.473236-.08198.163602-.367326.442098-.601553.58712-.272278.168586-.812161.359153-1.242899.438725-.459925.08497-1.086411.107013-1.527903.05376zm-36.77649-1.636225c-.915041-.11766-1.725034-.508175-2.0345132-.980888l-.1212319-.185157.00391-7.726798c.00326-5.375181.020598-7.7689505.058103-7.865325.2029147-.5211209 1.0994001-1.0136518 2.0849791-1.1454745.365628-.048929 1.189425-.016731 1.595339.062351 1.000564.1948837 1.685586.600456 1.909127 1.1303055.03073.072777.0501 2.968583.05243 7.827006l.0039 7.71149-.119902.175458c-.174404.25522-.366286.416011-.713094.597552-.70432.368688-1.756494.523258-2.71918.399469zm18.64747-1.592876c-.597266-.04046-1.348314-.242949-1.746861-.470994-.253066-.144809-.528889-.404712-.639462-.602564l-.110877-.19839.01337-6.105376.01337-6.105376.112916-.174082c.304644-.469658.941408-.823998 1.766696-.983123.261188-.05039.419341-.0613.883081-.06097.487707.000304.62043.01065.971106.07548.754535.139526 1.326311.402094 1.659989.762298.347738.375374.32578-.06295.329098 6.570037.002 4.238057-.01317 6.040583-.0519 6.132903-.08546.203421-.370197.490699-.652167.658002-.626589.371784-1.610515.565683-2.548287.502178zm36.678946.0026c-1.098555-.07531-2.033511-.488854-2.39318-1.058549-.07819-.123855-.08412-.593653-.07887-6.258287.0064-6.782779-.02104-6.252017.341152-6.618173.26594-.268822.714333-.497006 1.258137-.640255.422543-.111305.453927-.115226.99505-.124278.659708-.01104.97975.02076 1.479257.146826.798133.201476 1.411984.623924 1.576607 1.085005.02711.07589.04719 2.635621.04861 6.188942.002 5.166226-.0083 6.077638-.06933 6.182351-.235208.402847-.81858.771073-1.494622.943423-.536701.136815-1.11824.190328-1.662791.152995zm-64.5314562-3.283782c-.9513559-.135856-1.74952238-.543703-2.04994293-1.04748-.11261359-.188854-.10510935-5.764037.00803527-6.000321.2334394-.487293.97468836-.915749 1.86612546-1.078663.2092348-.03822.4224853-.05277.7744386-.05277.9020962 0 1.5228223.132504 2.1219663.452975.2200303.117686.4462771.270773.5377538.363854.3241278.329808.3113636.197735.3224425 3.335658l.010098 2.853597-.1113801.177778c-.3006019.479827-1.0982646.868934-2.0442488.997219-.3741422.05071-1.0733419.04986-1.4353221-.002zm36.6253012-.0059c-.956294-.150606-1.674288-.518785-1.991127-1.021027l-.108843-.172535.0059-2.808071c.0033-1.54444.02595-2.865186.05087-2.934986.116972-.327619.471934-.663589.925532-.876009.143519-.06721.452081-.172806.6857-.234664l.424754-.112476h.659237c.762631 0 1.116696.04926 1.636281.227642.73966.253946 1.171612.606817 1.314201 1.073638.03383.110743.05256 1.137005.05282 2.891054.000284 3.017012.01673 2.861332-.337467 3.219381-.314372.317774-.943517.599524-1.62209.72642-.403221.0754-1.282676.08662-1.695394.02162zm36.724682.0099c-.573184-.08397-1.154877-.280949-1.521634-.515256-.246378-.157412-.517216-.449286-.590216-.636057-.03719-.09513-.04971-1.024879-.04003-2.962532l.01414-2.823893.139612-.209637c.280621-.421388.769043-.719371 1.490226-.909197.407934-.107371.452055-.112965.961821-.121957.645873-.01137 1.08366.03624 1.563225.170107.79681.222411 1.351423.619811 1.518635 1.088153.02479.06952.0479 1.383941.05126 2.920935l.0064 2.794528-.109263.173202c-.323417.512665-1.088014.896198-2.049248 1.027922-.367505.05038-1.103189.05224-1.434717.004z" fill="#fff" stroke-width=".036746"/></svg>