<svg height="20" viewBox="0 0 2480 20" width="2480" xmlns="http://www.w3.org/2000/svg" xmlns:xlink="http://www.w3.org/1999/xlink"><linearGradient id="a" gradientTransform="matrix(-5.6426892 0 0 .61443946 2266.3811 -637.34213)" gradientUnits="userSpaceOnUse" x1="-28.514982" x2="400" y1="1050.4148" y2="1044.8622"><stop offset="0" stop-color="#fd0a00"/><stop offset=".13506837" stop-color="#fd0a00"/><stop offset=".27250069" stop-color="#fa9100"/><stop offset=".39692047" stop-color="#fa9100"/><stop offset=".56578106" stop-color="#fffe00"/><stop offset=".74548423" stop-color="#fffe00"/><stop offset=".86104023" stop-color="#0bf325"/><stop offset="1" stop-color="#3ea500"/></linearGradient><path d="m2469.9908.03403795h-2459.859833v20.00000005h2459.859833z" fill="url(#a)" stroke-width="3.0998"/><path d="m19.99907-10.164155a10 10 0 0 1 -5.045413 8.6863151 10 10 0 0 1 -10.0450009-.0788948 10 10 0 0 1 -4.90835226-8.7644933l9.99876636.157073z" fill="#3ea500" transform="rotate(90)"/><path d="m-.01496792 2470.0073a10 10 0 0 1 -5.04541328 8.6863 10 10 0 0 1 -10.0450008-.079 10 10 0 0 1 -4.908352-8.7644l9.998766.157z" fill="#fd0a00" transform="rotate(-90)"/></svg>